REM DIRINDEX 1\2,1\3,1\4,1\5,1\6
REM DIRNAME cjc129,folder01,folder02,folder03,folder04,folder05
TITLE ""
FILE "DISC2Track01.mp3" MP3
  TRACK 01 AUDIO
    TITLE "0:"
    INDEX 01 00:00:00
  TRACK 02 AUDIO
    TITLE "2:cjc129_0931"
    INDEX 01 00:00:05
  TRACK 03 AUDIO
    TITLE "0:"
    INDEX 01 00:01:50
  TRACK 04 AUDIO
    TITLE "2:cjc129_0932"
    INDEX 01 00:05:32
  TRACK 05 AUDIO
    TITLE "0:"
    INDEX 01 00:10:39
  TRACK 06 AUDIO
    TITLE "3:cjc129_0933"
    INDEX 01 00:11:50
  TRACK 07 AUDIO
    TITLE "0:"
    INDEX 01 00:12:73
  TRACK 08 AUDIO
    TITLE "5:cjc129_0934"
    INDEX 01 00:13:32
  TRACK 09 AUDIO
    TITLE "0:"
    INDEX 01 00:15:28
  TRACK 10 AUDIO
    TITLE "4:cjc129_0935"
    INDEX 01 00:16:18
  TRACK 11 AUDIO
    TITLE "0:"
    INDEX 01 00:17:39
  TRACK 12 AUDIO
    TITLE "6:cjc129_0936"
    INDEX 01 00:17:72
  TRACK 13 AUDIO
    TITLE "0:"
    INDEX 01 00:22:50
  TRACK 14 AUDIO
    TITLE "3:cjc129_0937"
    INDEX 01 00:24:25
  TRACK 15 AUDIO
    TITLE "0:"
    INDEX 01 00:25:41
  TRACK 16 AUDIO
    TITLE "5:cjc129_0938"
    INDEX 01 00:26:01
  TRACK 17 AUDIO
    TITLE "0:"
    INDEX 01 00:38:45
  TRACK 18 AUDIO
    TITLE "4:cjc129_0939"
    INDEX 01 00:39:31
  TRACK 19 AUDIO
    TITLE "0:"
    INDEX 01 00:40:48
  TRACK 20 AUDIO
    TITLE "6:cjc129_0940"
    INDEX 01 00:41:06
  TRACK 21 AUDIO
    TITLE "0:"
    INDEX 01 00:45:16
  TRACK 22 AUDIO
    TITLE "3:cjc129_0941"
    INDEX 01 00:46:66
  TRACK 23 AUDIO
    TITLE "0:"
    INDEX 01 00:48:18
  TRACK 24 AUDIO
    TITLE "5:cjc129_0942"
    INDEX 01 00:48:49
  TRACK 25 AUDIO
    TITLE "0:"
    INDEX 01 00:56:06
  TRACK 26 AUDIO
    TITLE "4:cjc129_0943"
    INDEX 01 00:56:71
  TRACK 27 AUDIO
    TITLE "0:"
    INDEX 01 00:58:22
  TRACK 28 AUDIO
    TITLE "6:cjc129_0944"
    INDEX 01 00:58:54
  TRACK 29 AUDIO
    TITLE "0:"
    INDEX 01 01:03:08
  TRACK 30 AUDIO
    TITLE "3:cjc129_0945"
    INDEX 01 01:04:56
  TRACK 31 AUDIO
    TITLE "0:"
    INDEX 01 01:06:06
  TRACK 32 AUDIO
    TITLE "5:cjc129_0946"
    INDEX 01 01:07:51
  TRACK 33 AUDIO
    TITLE "0:"
    INDEX 01 01:09:46
  TRACK 34 AUDIO
    TITLE "4:cjc129_0947"
    INDEX 01 01:10:37
  TRACK 35 AUDIO
    TITLE "0:"
    INDEX 01 01:11:60
  TRACK 36 AUDIO
    TITLE "6:cjc129_0948"
    INDEX 01 01:12:17
  TRACK 37 AUDIO
    TITLE "0:"
    INDEX 01 01:17:04
  TRACK 38 AUDIO
    TITLE "3:cjc129_0949"
    INDEX 01 01:18:53
  TRACK 39 AUDIO
    TITLE "0:"
    INDEX 01 01:20:02
  TRACK 40 AUDIO
    TITLE "5:cjc129_0950"
    INDEX 01 01:21:33
  TRACK 41 AUDIO
    TITLE "0:"
    INDEX 01 01:24:69
  TRACK 42 AUDIO
    TITLE "4:cjc129_0951"
    INDEX 01 01:25:57
  TRACK 43 AUDIO
    TITLE "0:"
    INDEX 01 01:27:06
  TRACK 44 AUDIO
    TITLE "6:cjc129_0952"
    INDEX 01 01:27:38
  TRACK 45 AUDIO
    TITLE "0:"
    INDEX 01 01:31:34
  TRACK 46 AUDIO
    TITLE "3:cjc129_0953"
    INDEX 01 01:33:09
  TRACK 47 AUDIO
    TITLE "0:"
    INDEX 01 01:34:54
  TRACK 48 AUDIO
    TITLE "5:cjc129_0954"
    INDEX 01 01:35:08
  TRACK 49 AUDIO
    TITLE "0:"
    INDEX 01 01:39:37
  TRACK 50 AUDIO
    TITLE "4:cjc129_0955"
    INDEX 01 01:40:25
  TRACK 51 AUDIO
    TITLE "0:"
    INDEX 01 01:41:69
  TRACK 52 AUDIO
    TITLE "6:cjc129_0956"
    INDEX 01 01:42:24
  TRACK 53 AUDIO
    TITLE "0:"
    INDEX 01 01:47:01
  TRACK 54 AUDIO
    TITLE "3:cjc129_0957"
    INDEX 01 01:48:52
  TRACK 55 AUDIO
    TITLE "0:"
    INDEX 01 01:50:15
  TRACK 56 AUDIO
    TITLE "5:cjc129_0958"
    INDEX 01 01:50:47
  TRACK 57 AUDIO
    TITLE "0:"
    INDEX 01 01:52:59
  TRACK 58 AUDIO
    TITLE "4:cjc129_0959"
    INDEX 01 01:53:49
  TRACK 59 AUDIO
    TITLE "0:"
    INDEX 01 01:55:15
  TRACK 60 AUDIO
    TITLE "6:cjc129_0960"
    INDEX 01 01:55:44
  TRACK 61 AUDIO
    TITLE "0:"
    INDEX 01 02:00:33
